<?xml version="1.0" encoding="utf-8" ?>
<svg baseProfile="full" height="57.5mm" version="1.1" viewBox="0,0,306.20000000000005,57.5" width="306.20000000000005mm" xmlns="http://www.w3.org/2000/svg" xmlns:ev="http://www.w3.org/2001/xml-events" xmlns:xlink="http://www.w3.org/1999/xlink"><defs /><rect fill="#ffffff" height="57.5" width="306.20000000000005" x="0" y="0" /><text fill="#586e75" style="font-size:6px; font-family:Arial; font-weight:bold;" x="10" y="10">Keep Going Angel</text><text fill="#586e75" style="font-size:3px; font-family:Arial;" x="10" y="14.4">2024: 2336 KM</text><text fill="#586e75" style="font-size:2.5px; font-family:Arial" x="10" y="18.3">Jan</text><rect fill="#eee8d5" height="4" rx="1" ry="1" width="4" x="10" y="19.7"><title>2024-01-01</title></rect><rect fill="#6c71c4" height="4" rx="1" ry="1" width="4" x="10" y="25.1"><title>2024-01-02 10.04 KM</title></rect><rect fill="#eee8d5" height="4" rx="1" ry="1" width="4" x="10" y="30.5"><title>2024-01-03</title></rect><rect fill="#40ce73" height="4" rx="1" ry="1" width="4" x="10" y="35.9"><title>2024-01-04 8.91 KM</title></rect><rect fill="#eee8d5" height="4" rx="1" ry="1" width="4" x="10" y="41.300000000000004"><title>2024-01-05</title></rect><rect fill="#6c71c4" height="4" rx="1" ry="1" width="4" x="10" y="46.699999999999996"><title>2024-01-06 10.04 KM</title></rect><rect fill="#6c71c4" height="4" rx="1" ry="1" width="4" x="10" y="52.1"><title>2024-01-07 10.68 KM</title></rect><rect fill="#eee8d5" height="4" rx="1" ry="1" width="4" x="15.4" y="19.7"><title>2024-01-08</title></rect><rect fill="#3dcf65" height="4" rx="1" ry="1" width="4" x="15.4" y="25.1"><title>2024-01-09 8.55 KM</title></rect><rect fill="#eee8d5" height="4" rx="1" ry="1" width="4" x="15.4" y="30.5"><title>2024-01-10</title></rect><rect fill="#3dcf62" height="4" rx="1" ry="1" width="4" x="15.4" y="35.9"><title>2024-01-11 8.46 KM</title></rect><rect fill="#eee8d5" height="4" rx="1" ry="1" width="4" x="15.4" y="41.300000000000004"><title>2024-01-12</title></rect><rect fill="#6c71c4" height="4" rx="1" ry="1" width="4" x="15.4" y="46.699999999999996"><title>2024-01-13 10.05 KM</title></rect><rect fill="#eee8d5" height="4" rx="1" ry="1" width="4" x="15.4" y="52.1"><title>2024-01-14</title></rect><rect fill="#39d04c" height="4" rx="1" ry="1" width="4" x="20.8" y="19.7"><title>2024-01-15 7.91 KM</title></rect><rect fill="#eee8d5" height="4" rx="1" ry="1" width="4" x="20.8" y="25.1"><title>2024-01-16</title></rect><rect fill="#40ce72" height="4" rx="1" ry="1" width="4" x="20.8" y="30.5"><title>2024-01-17 8.89 KM</title></rect><rect fill="#eee8d5" height="4" rx="1" ry="1" width="4" x="20.8" y="35.9"><title>2024-01-18</title></rect><rect fill="#3ccf5e" height="4" rx="1" ry="1" width="4" x="20.8" y="41.300000000000004"><title>2024-01-19 8.37 KM</title></rect><rect fill="#eee8d5" height="4" rx="1" ry="1" width="4" x="20.8" y="46.699999999999996"><title>2024-01-20</title></rect><rect fill="#3ccf5f" height="4" rx="1" ry="1" width="4" x="20.8" y="52.1"><title>2024-01-21 8.39 KM</title></rect><rect fill="#eee8d5" height="4" rx="1" ry="1" width="4" x="26.200000000000003" y="19.7"><title>2024-01-22</title></rect><rect fill="#eee8d5" height="4" rx="1" ry="1" width="4" x="26.200000000000003" y="25.1"><title>2024-01-23</title></rect><rect fill="#3fce6d" height="4" rx="1" ry="1" width="4" x="26.200000000000003" y="30.5"><title>2024-01-24 8.75 KM</title></rect><rect fill="#eee8d5" height="4" rx="1" ry="1" width="4" x="26.200000000000003" y="35.9"><title>2024-01-25</title></rect><rect fill="#eee8d5" height="4" rx="1" ry="1" width="4" x="26.200000000000003" y="41.300000000000004"><title>2024-01-26</title></rect><rect fill="#6c71c4" height="4" rx="1" ry="1" width="4" x="26.200000000000003" y="46.699999999999996"><title>2024-01-27 12.27 KM</title></rect><rect fill="#eee8d5" height="4" rx="1" ry="1" width="4" x="26.200000000000003" y="52.1"><title>2024-01-28</title></rect><rect fill="#40ce72" height="4" rx="1" ry="1" width="4" x="31.6" y="19.7"><title>2024-01-29 8.9 KM</title></rect><rect fill="#3acf54" height="4" rx="1" ry="1" width="4" x="31.6" y="25.1"><title>2024-01-30 8.1 KM</title></rect><rect fill="#eee8d5" height="4" rx="1" ry="1" width="4" x="31.6" y="30.5"><title>2024-01-31</title></rect><rect fill="#3ccf5d" height="4" rx="1" ry="1" width="4" x="31.6" y="35.9"><title>2024-02-01 8.35 KM</title></rect><rect fill="#7bc20c" height="4" rx="1" ry="1" width="4" x="31.6" y="41.300000000000004"><title>2024-02-02 3.11 KM</title></rect><rect fill="#3bcf57" height="4" rx="1" ry="1" width="4" x="31.6" y="46.699999999999996"><title>2024-02-03 8.19 KM</title></rect><rect fill="#eee8d5" height="4" rx="1" ry="1" width="4" x="31.6" y="52.1"><title>2024-02-04</title></rect><text fill="#586e75" style="font-size:2.5px; font-family:Arial" x="37.0" y="18.3">Feb</text><rect fill="#eee8d5" height="4" rx="1" ry="1" width="4" x="37.0" y="19.7"><title>2024-02-05</title></rect><rect fill="#42cd7f" height="4" rx="1" ry="1" width="4" x="37.0" y="25.1"><title>2024-02-06 9.25 KM</title></rect><rect fill="#7ac20c" height="4" rx="1" ry="1" width="4" x="37.0" y="30.5"><title>2024-02-07 3.15 KM</title></rect><rect fill="#3dcf61" height="4" rx="1" ry="1" width="4" x="37.0" y="35.9"><title>2024-02-08 8.45 KM</title></rect><rect fill="#3ad051" height="4" rx="1" ry="1" width="4" x="37.0" y="41.300000000000004"><title>2024-02-09 8.04 KM</title></rect><rect fill="#7cc20b" height="4" rx="1" ry="1" width="4" x="37.0" y="46.699999999999996"><title>2024-02-10 3.08 KM</title></rect><rect fill="#3ece68" height="4" rx="1" ry="1" width="4" x="37.0" y="52.1"><title>2024-02-11 8.63 KM</title></rect><rect fill="#3ad051" height="4" rx="1" ry="1" width="4" x="42.4" y="19.7"><title>2024-02-12 8.03 KM</title></rect><rect fill="#3acf52" height="4" rx="1" ry="1" width="4" x="42.4" y="25.1"><title>2024-02-13 8.05 KM</title></rect><rect fill="#eee8d5" height="4" rx="1" ry="1" width="4" x="42.4" y="30.5"><title>2024-02-14</title></rect><rect fill="#3acf54" height="4" rx="1" ry="1" width="4" x="42.4" y="35.9"><title>2024-02-15 8.12 KM</title></rect><rect fill="#3acf52" height="4" rx="1" ry="1" width="4" x="42.4" y="41.300000000000004"><title>2024-02-16 8.05 KM</title></rect><rect fill="#eee8d5" height="4" rx="1" ry="1" width="4" x="42.4" y="46.699999999999996"><title>2024-02-17</title></rect><rect fill="#40ce72" height="4" rx="1" ry="1" width="4" x="42.4" y="52.1"><title>2024-02-18 8.89 KM</title></rect><rect fill="#eee8d5" height="4" rx="1" ry="1" width="4" x="47.8" y="19.7"><title>2024-02-19</title></rect><rect fill="#3acf54" height="4" rx="1" ry="1" width="4" x="47.8" y="25.1"><title>2024-02-20 8.11 KM</title></rect><rect fill="#70c30d" height="4" rx="1" ry="1" width="4" x="47.8" y="30.5"><title>2024-02-21 3.46 KM</title></rect><rect fill="#3acf52" height="4" rx="1" ry="1" width="4" x="47.8" y="35.9"><title>2024-02-22 8.07 KM</title></rect><rect fill="#3bc814" height="4" rx="1" ry="1" width="4" x="47.8" y="41.300000000000004"><title>2024-02-23 5.08 KM</title></rect><rect fill="#30c916" height="4" rx="1" ry="1" width="4" x="47.8" y="46.699999999999996"><title>2024-02-24 5.42 KM</title></rect><rect fill="#eee8d5" height="4" rx="1" ry="1" width="4" x="47.8" y="52.1"><title>2024-02-25</title></rect><rect fill="#37c915" height="4" rx="1" ry="1" width="4" x="53.199999999999996" y="19.7"><title>2024-02-26 5.21 KM</title></rect><rect fill="#3dc814" height="4" rx="1" ry="1" width="4" x="53.199999999999996" y="25.1"><title>2024-02-27 5.01 KM</title></rect><rect fill="#3cc814" height="4" rx="1" ry="1" width="4" x="53.199999999999996" y="30.5"><title>2024-02-28 5.04 KM</title></rect><rect fill="#3cc814" height="4" rx="1" ry="1" width="4" x="53.199999999999996" y="35.9"><title>2024-02-29 5.04 KM</title></rect><rect fill="#3dc814" height="4" rx="1" ry="1" width="4" x="53.199999999999996" y="41.300000000000004"><title>2024-03-01 5.03 KM</title></rect><rect fill="#3dc814" height="4" rx="1" ry="1" width="4" x="53.199999999999996" y="46.699999999999996"><title>2024-03-02 5.03 KM</title></rect><rect fill="#eee8d5" height="4" rx="1" ry="1" width="4" x="53.199999999999996" y="52.1"><title>2024-03-03</title></rect><text fill="#586e75" style="font-size:2.5px; font-family:Arial" x="58.599999999999994" y="18.3">Mar</text><rect fill="#2fc916" height="4" rx="1" ry="1" width="4" x="58.599999999999994" y="19.7"><title>2024-03-04 5.46 KM</title></rect><rect fill="#3dc814" height="4" rx="1" ry="1" width="4" x="58.599999999999994" y="25.1"><title>2024-03-05 5.01 KM</title></rect><rect fill="#3acf54" height="4" rx="1" ry="1" width="4" x="58.599999999999994" y="30.5"><title>2024-03-06 8.11 KM</title></rect><rect fill="#3ad051" height="4" rx="1" ry="1" width="4" x="58.599999999999994" y="35.9"><title>2024-03-07 8.04 KM</title></rect><rect fill="#40ce72" height="4" rx="1" ry="1" width="4" x="58.599999999999994" y="41.300000000000004"><title>2024-03-08 8.89 KM</title></rect><rect fill="#3acf52" height="4" rx="1" ry="1" width="4" x="58.599999999999994" y="46.699999999999996"><title>2024-03-09 8.05 KM</title></rect><rect fill="#3acf53" height="4" rx="1" ry="1" width="4" x="58.599999999999994" y="52.1"><title>2024-03-10 8.08 KM</title></rect><rect fill="#3bcf56" height="4" rx="1" ry="1" width="4" x="63.99999999999999" y="19.7"><title>2024-03-11 8.16 KM</title></rect><rect fill="#3ccf5f" height="4" rx="1" ry="1" width="4" x="63.99999999999999" y="25.1"><title>2024-03-12 8.38 KM</title></rect><rect fill="#3acf52" height="4" rx="1" ry="1" width="4" x="63.99999999999999" y="30.5"><title>2024-03-13 8.06 KM</title></rect><rect fill="#3fce6f" height="4" rx="1" ry="1" width="4" x="63.99999999999999" y="35.9"><title>2024-03-14 8.82 KM</title></rect><rect fill="#3ece68" height="4" rx="1" ry="1" width="4" x="63.99999999999999" y="41.300000000000004"><title>2024-03-15 8.63 KM</title></rect><rect fill="#1ece3f" height="4" rx="1" ry="1" width="4" x="63.99999999999999" y="46.699999999999996"><title>2024-03-16 7.07 KM</title></rect><rect fill="#eee8d5" height="4" rx="1" ry="1" width="4" x="63.99999999999999" y="52.1"><title>2024-03-17</title></rect><rect fill="#eee8d5" height="4" rx="1" ry="1" width="4" x="69.39999999999999" y="19.7"><title>2024-03-18</title></rect><rect fill="#23cb18" height="4" rx="1" ry="1" width="4" x="69.39999999999999" y="25.1"><title>2024-03-19 5.83 KM</title></rect><rect fill="#3acf52" height="4" rx="1" ry="1" width="4" x="69.39999999999999" y="30.5"><title>2024-03-20 8.06 KM</title></rect><rect fill="#3ad051" height="4" rx="1" ry="1" width="4" x="69.39999999999999" y="35.9"><title>2024-03-21 8.03 KM</title></rect><rect fill="#21cf56" height="4" rx="1" ry="1" width="4" x="69.39999999999999" y="41.300000000000004"><title>2024-03-22 7.64 KM</title></rect><rect fill="#20cf4d" height="4" rx="1" ry="1" width="4" x="69.39999999999999" y="46.699999999999996"><title>2024-03-23 7.41 KM</title></rect><rect fill="#eee8d5" height="4" rx="1" ry="1" width="4" x="69.39999999999999" y="52.1"><title>2024-03-24</title></rect><rect fill="#3ccf5b" height="4" rx="1" ry="1" width="4" x="74.8" y="19.7"><title>2024-03-25 8.29 KM</title></rect><rect fill="#eee8d5" height="4" rx="1" ry="1" width="4" x="74.8" y="25.1"><title>2024-03-26</title></rect><rect fill="#22cf58" height="4" rx="1" ry="1" width="4" x="74.8" y="30.5"><title>2024-03-27 7.68 KM</title></rect><rect fill="#40ce73" height="4" rx="1" ry="1" width="4" x="74.8" y="35.9"><title>2024-03-28 8.91 KM</title></rect><rect fill="#1fce47" height="4" rx="1" ry="1" width="4" x="74.8" y="41.300000000000004"><title>2024-03-29 7.26 KM</title></rect><rect fill="#eee8d5" height="4" rx="1" ry="1" width="4" x="74.8" y="46.699999999999996"><title>2024-03-30</title></rect><rect fill="#1dcd34" height="4" rx="1" ry="1" width="4" x="74.8" y="52.1"><title>2024-03-31 6.79 KM</title></rect><text fill="#586e75" style="font-size:2.5px; font-family:Arial" x="80.2" y="18.3">Apr</text><rect fill="#3acf52" height="4" rx="1" ry="1" width="4" x="80.2" y="19.7"><title>2024-04-01 8.06 KM</title></rect><rect fill="#1dcd38" height="4" rx="1" ry="1" width="4" x="80.2" y="25.1"><title>2024-04-02 6.9 KM</title></rect><rect fill="#eee8d5" height="4" rx="1" ry="1" width="4" x="80.2" y="30.5"><title>2024-04-03</title></rect><rect fill="#6c71c4" height="4" rx="1" ry="1" width="4" x="80.2" y="35.9"><title>2024-04-04 10.04 KM</title></rect><rect fill="#20ce48" height="4" rx="1" ry="1" width="4" x="80.2" y="41.300000000000004"><title>2024-04-05 7.3 KM</title></rect><rect fill="#1fce42" height="4" rx="1" ry="1" width="4" x="80.2" y="46.699999999999996"><title>2024-04-06 7.13 KM</title></rect><rect fill="#eee8d5" height="4" rx="1" ry="1" width="4" x="80.2" y="52.1"><title>2024-04-07</title></rect><rect fill="#1ece3e" height="4" rx="1" ry="1" width="4" x="85.60000000000001" y="19.7"><title>2024-04-08 7.05 KM</title></rect><rect fill="#eee8d5" height="4" rx="1" ry="1" width="4" x="85.60000000000001" y="25.1"><title>2024-04-09</title></rect><rect fill="#1fce40" height="4" rx="1" ry="1" width="4" x="85.60000000000001" y="30.5"><title>2024-04-10 7.1 KM</title></rect><rect fill="#eee8d5" height="4" rx="1" ry="1" width="4" x="85.60000000000001" y="35.9"><title>2024-04-11</title></rect><rect fill="#6c71c4" height="4" rx="1" ry="1" width="4" x="85.60000000000001" y="41.300000000000004"><title>2024-04-12 10.03 KM</title></rect><rect fill="#3ece67" height="4" rx="1" ry="1" width="4" x="85.60000000000001" y="46.699999999999996"><title>2024-04-13 8.6 KM</title></rect><rect fill="#42cd7c" height="4" rx="1" ry="1" width="4" x="85.60000000000001" y="52.1"><title>2024-04-14 9.18 KM</title></rect><rect fill="#20cf4b" height="4" rx="1" ry="1" width="4" x="91.00000000000001" y="19.7"><title>2024-04-15 7.37 KM</title></rect><rect fill="#3acf52" height="4" rx="1" ry="1" width="4" x="91.00000000000001" y="25.1"><title>2024-04-16 8.07 KM</title></rect><rect fill="#3acf52" height="4" rx="1" ry="1" width="4" x="91.00000000000001" y="30.5"><title>2024-04-17 8.06 KM</title></rect><rect fill="#3ad050" height="4" rx="1" ry="1" width="4" x="91.00000000000001" y="35.9"><title>2024-04-18 8.0 KM</title></rect><rect fill="#33c916" height="4" rx="1" ry="1" width="4" x="91.00000000000001" y="41.300000000000004"><title>2024-04-19 5.35 KM</title></rect><rect fill="#6c71c4" height="4" rx="1" ry="1" width="4" x="91.00000000000001" y="46.699999999999996"><title>2024-04-20 15.75 KM</title></rect><rect fill="#eee8d5" height="4" rx="1" ry="1" width="4" x="91.00000000000001" y="52.1"><title>2024-04-21</title></rect><rect fill="#eee8d5" height="4" rx="1" ry="1" width="4" x="96.40000000000002" y="19.7"><title>2024-04-22</title></rect><rect fill="#1ece40" height="4" rx="1" ry="1" width="4" x="96.40000000000002" y="25.1"><title>2024-04-23 7.09 KM</title></rect><rect fill="#20cf4f" height="4" rx="1" ry="1" width="4" x="96.40000000000002" y="30.5"><title>2024-04-24 7.46 KM</title></rect><rect fill="#6c71c4" height="4" rx="1" ry="1" width="4" x="96.40000000000002" y="35.9"><title>2024-04-25 14.31 KM</title></rect><rect fill="#eee8d5" height="4" rx="1" ry="1" width="4" x="96.40000000000002" y="41.300000000000004"><title>2024-04-26</title></rect><rect fill="#eee8d5" height="4" rx="1" ry="1" width="4" x="96.40000000000002" y="46.699999999999996"><title>2024-04-27</title></rect><rect fill="#eee8d5" height="4" rx="1" ry="1" width="4" x="96.40000000000002" y="52.1"><title>2024-04-28</title></rect><rect fill="#eee8d5" height="4" rx="1" ry="1" width="4" x="101.80000000000003" y="19.7"><title>2024-04-29</title></rect><rect fill="#2eca16" height="4" rx="1" ry="1" width="4" x="101.80000000000003" y="25.1"><title>2024-04-30 5.49 KM</title></rect><rect fill="#3dc814" height="4" rx="1" ry="1" width="4" x="101.80000000000003" y="30.5"><title>2024-05-01 5.02 KM</title></rect><rect fill="#59c510" height="4" rx="1" ry="1" width="4" x="101.80000000000003" y="35.9"><title>2024-05-02 4.15 KM</title></rect><rect fill="#1acc1e" height="4" rx="1" ry="1" width="4" x="101.80000000000003" y="41.300000000000004"><title>2024-05-03 6.25 KM</title></rect><rect fill="#39d04e" height="4" rx="1" ry="1" width="4" x="101.80000000000003" y="46.699999999999996"><title>2024-05-04 7.97 KM</title></rect><rect fill="#3dcf65" height="4" rx="1" ry="1" width="4" x="101.80000000000003" y="52.1"><title>2024-05-05 8.55 KM</title></rect><text fill="#586e75" style="font-size:2.5px; font-family:Arial" x="107.20000000000003" y="18.3">May</text><rect fill="#1dcd35" height="4" rx="1" ry="1" width="4" x="107.20000000000003" y="19.7"><title>2024-05-06 6.81 KM</title></rect><rect fill="#41cd7a" height="4" rx="1" ry="1" width="4" x="107.20000000000003" y="25.1"><title>2024-05-07 9.12 KM</title></rect><rect fill="#42cd7e" height="4" rx="1" ry="1" width="4" x="107.20000000000003" y="30.5"><title>2024-05-08 9.22 KM</title></rect><rect fill="#20cf4b" height="4" rx="1" ry="1" width="4" x="107.20000000000003" y="35.9"><title>2024-05-09 7.36 KM</title></rect><rect fill="#6c71c4" height="4" rx="1" ry="1" width="4" x="107.20000000000003" y="41.300000000000004"><title>2024-05-10 13.17 KM</title></rect><rect fill="#3dc814" height="4" rx="1" ry="1" width="4" x="107.20000000000003" y="46.699999999999996"><title>2024-05-11 5.02 KM</title></rect><rect fill="#eee8d5" height="4" rx="1" ry="1" width="4" x="107.20000000000003" y="52.1"><title>2024-05-12</title></rect><rect fill="#eee8d5" height="4" rx="1" ry="1" width="4" x="112.60000000000004" y="19.7"><title>2024-05-13</title></rect><rect fill="#37c915" height="4" rx="1" ry="1" width="4" x="112.60000000000004" y="25.1"><title>2024-05-14 5.21 KM</title></rect><rect fill="#1ecb19" height="4" rx="1" ry="1" width="4" x="112.60000000000004" y="30.5"><title>2024-05-15 6.01 KM</title></rect><rect fill="#37c915" height="4" rx="1" ry="1" width="4" x="112.60000000000004" y="35.9"><title>2024-05-16 5.21 KM</title></rect><rect fill="#1acc20" height="4" rx="1" ry="1" width="4" x="112.60000000000004" y="41.300000000000004"><title>2024-05-17 6.3 KM</title></rect><rect fill="#24ca18" height="4" rx="1" ry="1" width="4" x="112.60000000000004" y="46.699999999999996"><title>2024-05-18 5.8 KM</title></rect><rect fill="#6c71c4" height="4" rx="1" ry="1" width="4" x="112.60000000000004" y="52.1"><title>2024-05-19 10.04 KM</title></rect><rect fill="#eee8d5" height="4" rx="1" ry="1" width="4" x="118.00000000000004" y="19.7"><title>2024-05-20</title></rect><rect fill="#20cb19" height="4" rx="1" ry="1" width="4" x="118.00000000000004" y="25.1"><title>2024-05-21 5.93 KM</title></rect><rect fill="#1bcc24" height="4" rx="1" ry="1" width="4" x="118.00000000000004" y="30.5"><title>2024-05-22 6.4 KM</title></rect><rect fill="#20cf4e" height="4" rx="1" ry="1" width="4" x="118.00000000000004" y="35.9"><title>2024-05-23 7.44 KM</title></rect><rect fill="#24ca18" height="4" rx="1" ry="1" width="4" x="118.00000000000004" y="41.300000000000004"><title>2024-05-24 5.82 KM</title></rect><rect fill="#1bcc25" height="4" rx="1" ry="1" width="4" x="118.00000000000004" y="46.699999999999996"><title>2024-05-25 6.43 KM</title></rect><rect fill="#eee8d5" height="4" rx="1" ry="1" width="4" x="118.00000000000004" y="52.1"><title>2024-05-26</title></rect><rect fill="#1fce41" height="4" rx="1" ry="1" width="4" x="123.40000000000005" y="19.7"><title>2024-05-27 7.12 KM</title></rect><rect fill="#1bcb19" height="4" rx="1" ry="1" width="4" x="123.40000000000005" y="25.1"><title>2024-05-28 6.11 KM</title></rect><rect fill="#5ac510" height="4" rx="1" ry="1" width="4" x="123.40000000000005" y="30.5"><title>2024-05-29 4.14 KM</title></rect><rect fill="#eee8d5" height="4" rx="1" ry="1" width="4" x="123.40000000000005" y="35.9"><title>2024-05-30</title></rect><rect fill="#1dcb19" height="4" rx="1" ry="1" width="4" x="123.40000000000005" y="41.300000000000004"><title>2024-05-31 6.03 KM</title></rect><rect fill="#1bcc26" height="4" rx="1" ry="1" width="4" x="123.40000000000005" y="46.699999999999996"><title>2024-06-01 6.44 KM</title></rect><rect fill="#eee8d5" height="4" rx="1" ry="1" width="4" x="123.40000000000005" y="52.1"><title>2024-06-02</title></rect><text fill="#586e75" style="font-size:2.5px; font-family:Arial" x="128.80000000000004" y="18.3">Jun</text><rect fill="#1ccb19" height="4" rx="1" ry="1" width="4" x="128.80000000000004" y="19.7"><title>2024-06-03 6.06 KM</title></rect><rect fill="#1ccc2a" height="4" rx="1" ry="1" width="4" x="128.80000000000004" y="25.1"><title>2024-06-04 6.54 KM</title></rect><rect fill="#1fce42" height="4" rx="1" ry="1" width="4" x="128.80000000000004" y="30.5"><title>2024-06-05 7.13 KM</title></rect><rect fill="#1ccd2c" height="4" rx="1" ry="1" width="4" x="128.80000000000004" y="35.9"><title>2024-06-06 6.6 KM</title></rect><rect fill="#21cf52" height="4" rx="1" ry="1" width="4" x="128.80000000000004" y="41.300000000000004"><title>2024-06-07 7.54 KM</title></rect><rect fill="#1dcd38" height="4" rx="1" ry="1" width="4" x="128.80000000000004" y="46.699999999999996"><title>2024-06-08 6.88 KM</title></rect><rect fill="#27ca17" height="4" rx="1" ry="1" width="4" x="128.80000000000004" y="52.1"><title>2024-06-09 5.71 KM</title></rect><rect fill="#1ccb19" height="4" rx="1" ry="1" width="4" x="134.20000000000005" y="19.7"><title>2024-06-10 6.06 KM</title></rect><rect fill="#1bcc24" height="4" rx="1" ry="1" width="4" x="134.20000000000005" y="25.1"><title>2024-06-11 6.41 KM</title></rect><rect fill="#25ca18" height="4" rx="1" ry="1" width="4" x="134.20000000000005" y="30.5"><title>2024-06-12 5.78 KM</title></rect><rect fill="#1acc1c" height="4" rx="1" ry="1" width="4" x="134.20000000000005" y="35.9"><title>2024-06-13 6.21 KM</title></rect><rect fill="#1dcd31" height="4" rx="1" ry="1" width="4" x="134.20000000000005" y="41.300000000000004"><title>2024-06-14 6.72 KM</title></rect><rect fill="#1bcc26" height="4" rx="1" ry="1" width="4" x="134.20000000000005" y="46.699999999999996"><title>2024-06-15 6.44 KM</title></rect><rect fill="#1dcd36" height="4" rx="1" ry="1" width="4" x="134.20000000000005" y="52.1"><title>2024-06-16 6.85 KM</title></rect><rect fill="#1ece3d" height="4" rx="1" ry="1" width="4" x="139.60000000000005" y="19.7"><title>2024-06-17 7.01 KM</title></rect><rect fill="#1ccd2d" height="4" rx="1" ry="1" width="4" x="139.60000000000005" y="25.1"><title>2024-06-18 6.61 KM</title></rect><rect fill="#1bcc28" height="4" rx="1" ry="1" width="4" x="139.60000000000005" y="30.5"><title>2024-06-19 6.49 KM</title></rect><rect fill="#1acc1d" height="4" rx="1" ry="1" width="4" x="139.60000000000005" y="35.9"><title>2024-06-20 6.23 KM</title></rect><rect fill="#1ccd2d" height="4" rx="1" ry="1" width="4" x="139.60000000000005" y="41.300000000000004"><title>2024-06-21 6.61 KM</title></rect><rect fill="#eee8d5" height="4" rx="1" ry="1" width="4" x="139.60000000000005" y="46.699999999999996"><title>2024-06-22</title></rect><rect fill="#1acc21" height="4" rx="1" ry="1" width="4" x="139.60000000000005" y="52.1"><title>2024-06-23 6.32 KM</title></rect><rect fill="#21cb18" height="4" rx="1" ry="1" width="4" x="145.00000000000006" y="19.7"><title>2024-06-24 5.91 KM</title></rect><rect fill="#1acc21" height="4" rx="1" ry="1" width="4" x="145.00000000000006" y="25.1"><title>2024-06-25 6.32 KM</title></rect><rect fill="#1bcc28" height="4" rx="1" ry="1" width="4" x="145.00000000000006" y="30.5"><title>2024-06-26 6.5 KM</title></rect><rect fill="#1ccd2a" height="4" rx="1" ry="1" width="4" x="145.00000000000006" y="35.9"><title>2024-06-27 6.55 KM</title></rect><rect fill="#1acb1b" height="4" rx="1" ry="1" width="4" x="145.00000000000006" y="41.300000000000004"><title>2024-06-28 6.18 KM</title></rect><rect fill="#1fcb19" height="4" rx="1" ry="1" width="4" x="145.00000000000006" y="46.699999999999996"><title>2024-06-29 5.98 KM</title></rect><rect fill="#1fcb19" height="4" rx="1" ry="1" width="4" x="145.00000000000006" y="52.1"><title>2024-06-30 5.98 KM</title></rect><text fill="#586e75" style="font-size:2.5px; font-family:Arial" x="150.40000000000006" y="18.3">Jul</text><rect fill="#2dca16" height="4" rx="1" ry="1" width="4" x="150.40000000000006" y="19.7"><title>2024-07-01 5.51 KM</title></rect><rect fill="#6c71c4" height="4" rx="1" ry="1" width="4" x="150.40000000000006" y="25.1"><title>2024-07-02 10.92 KM</title></rect><rect fill="#6c71c4" height="4" rx="1" ry="1" width="4" x="150.40000000000006" y="30.5"><title>2024-07-03 10.08 KM</title></rect><rect fill="#6c71c4" height="4" rx="1" ry="1" width="4" x="150.40000000000006" y="35.9"><title>2024-07-04 10.04 KM</title></rect><rect fill="#6c71c4" height="4" rx="1" ry="1" width="4" x="150.40000000000006" y="41.300000000000004"><title>2024-07-05 10.04 KM</title></rect><rect fill="#6c71c4" height="4" rx="1" ry="1" width="4" x="150.40000000000006" y="46.699999999999996"><title>2024-07-06 10.04 KM</title></rect><rect fill="#eee8d5" height="4" rx="1" ry="1" width="4" x="150.40000000000006" y="52.1"><title>2024-07-07</title></rect><rect fill="#eee8d5" height="4" rx="1" ry="1" width="4" x="155.80000000000007" y="19.7"><title>2024-07-08</title></rect><rect fill="#eee8d5" height="4" rx="1" ry="1" width="4" x="155.80000000000007" y="25.1"><title>2024-07-09</title></rect><rect fill="#eee8d5" height="4" rx="1" ry="1" width="4" x="155.80000000000007" y="30.5"><title>2024-07-10</title></rect><rect fill="#eee8d5" height="4" rx="1" ry="1" width="4" x="155.80000000000007" y="35.9"><title>2024-07-11</title></rect><rect fill="#eee8d5" height="4" rx="1" ry="1" width="4" x="155.80000000000007" y="41.300000000000004"><title>2024-07-12</title></rect><rect fill="#45cd8d" height="4" rx="1" ry="1" width="4" x="155.80000000000007" y="46.699999999999996"><title>2024-07-13 9.66 KM</title></rect><rect fill="#6c71c4" height="4" rx="1" ry="1" width="4" x="155.80000000000007" y="52.1"><title>2024-07-14 9.84 KM</title></rect><rect fill="#44cd8b" height="4" rx="1" ry="1" width="4" x="161.20000000000007" y="19.7"><title>2024-07-15 9.59 KM</title></rect><rect fill="#6c71c4" height="4" rx="1" ry="1" width="4" x="161.20000000000007" y="25.1"><title>2024-07-16 10.04 KM</title></rect><rect fill="#42cd7d" height="4" rx="1" ry="1" width="4" x="161.20000000000007" y="30.5"><title>2024-07-17 9.2 KM</title></rect><rect fill="#3cc814" height="4" rx="1" ry="1" width="4" x="161.20000000000007" y="35.9"><title>2024-07-18 5.05 KM</title></rect><rect fill="#36c915" height="4" rx="1" ry="1" width="4" x="161.20000000000007" y="41.300000000000004"><title>2024-07-19 5.24 KM</title></rect><rect fill="#1acb1b" height="4" rx="1" ry="1" width="4" x="161.20000000000007" y="46.699999999999996"><title>2024-07-20 6.18 KM</title></rect><rect fill="#1ccd2e" height="4" rx="1" ry="1" width="4" x="161.20000000000007" y="52.1"><title>2024-07-21 6.65 KM</title></rect><rect fill="#eee8d5" height="4" rx="1" ry="1" width="4" x="166.60000000000008" y="19.7"><title>2024-07-22</title></rect><rect fill="#20cf4d" height="4" rx="1" ry="1" width="4" x="166.60000000000008" y="25.1"><title>2024-07-23 7.41 KM</title></rect><rect fill="#1bcc29" height="4" rx="1" ry="1" width="4" x="166.60000000000008" y="30.5"><title>2024-07-24 6.51 KM</title></rect><rect fill="#1bcc22" height="4" rx="1" ry="1" width="4" x="166.60000000000008" y="35.9"><title>2024-07-25 6.36 KM</title></rect><rect fill="#1dcd33" height="4" rx="1" ry="1" width="4" x="166.60000000000008" y="41.300000000000004"><title>2024-07-26 6.77 KM</title></rect><rect fill="#1ecd39" height="4" rx="1" ry="1" width="4" x="166.60000000000008" y="46.699999999999996"><title>2024-07-27 6.92 KM</title></rect><rect fill="#1ccd30" height="4" rx="1" ry="1" width="4" x="166.60000000000008" y="52.1"><title>2024-07-28 6.69 KM</title></rect><rect fill="#1acc20" height="4" rx="1" ry="1" width="4" x="172.00000000000009" y="19.7"><title>2024-07-29 6.31 KM</title></rect><rect fill="#1ece3b" height="4" rx="1" ry="1" width="4" x="172.00000000000009" y="25.1"><title>2024-07-30 6.96 KM</title></rect><rect fill="#20ce48" height="4" rx="1" ry="1" width="4" x="172.00000000000009" y="30.5"><title>2024-07-31 7.3 KM</title></rect><rect fill="#1dcd38" height="4" rx="1" ry="1" width="4" x="172.00000000000009" y="35.9"><title>2024-08-01 6.88 KM</title></rect><rect fill="#1ccd30" height="4" rx="1" ry="1" width="4" x="172.00000000000009" y="41.300000000000004"><title>2024-08-02 6.7 KM</title></rect><rect fill="#1ccd2f" height="4" rx="1" ry="1" width="4" x="172.00000000000009" y="46.699999999999996"><title>2024-08-03 6.66 KM</title></rect><rect fill="#1acc1c" height="4" rx="1" ry="1" width="4" x="172.00000000000009" y="52.1"><title>2024-08-04 6.21 KM</title></rect><text fill="#586e75" style="font-size:2.5px; font-family:Arial" x="177.4000000000001" y="18.3">Aug</text><rect fill="#1bcc21" height="4" rx="1" ry="1" width="4" x="177.4000000000001" y="19.7"><title>2024-08-05 6.33 KM</title></rect><rect fill="#1acb1a" height="4" rx="1" ry="1" width="4" x="177.4000000000001" y="25.1"><title>2024-08-06 6.15 KM</title></rect><rect fill="#3dcf61" height="4" rx="1" ry="1" width="4" x="177.4000000000001" y="30.5"><title>2024-08-07 8.45 KM</title></rect><rect fill="#3dcf61" height="4" rx="1" ry="1" width="4" x="177.4000000000001" y="35.9"><title>2024-08-08 8.43 KM</title></rect><rect fill="#1acb1a" height="4" rx="1" ry="1" width="4" x="177.4000000000001" y="41.300000000000004"><title>2024-08-09 6.14 KM</title></rect><rect fill="#1dcd38" height="4" rx="1" ry="1" width="4" x="177.4000000000001" y="46.699999999999996"><title>2024-08-10 6.88 KM</title></rect><rect fill="#6c71c4" height="4" rx="1" ry="1" width="4" x="177.4000000000001" y="52.1"><title>2024-08-11 10.04 KM</title></rect><rect fill="#1ecd39" height="4" rx="1" ry="1" width="4" x="182.8000000000001" y="19.7"><title>2024-08-12 6.91 KM</title></rect><rect fill="#3ad051" height="4" rx="1" ry="1" width="4" x="182.8000000000001" y="25.1"><title>2024-08-13 8.03 KM</title></rect><rect fill="#1ccd2a" height="4" rx="1" ry="1" width="4" x="182.8000000000001" y="30.5"><title>2024-08-14 6.55 KM</title></rect><rect fill="#1dcd32" height="4" rx="1" ry="1" width="4" x="182.8000000000001" y="35.9"><title>2024-08-15 6.74 KM</title></rect><rect fill="#1ece3c" height="4" rx="1" ry="1" width="4" x="182.8000000000001" y="41.300000000000004"><title>2024-08-16 6.99 KM</title></rect><rect fill="#1dcd31" height="4" rx="1" ry="1" width="4" x="182.8000000000001" y="46.699999999999996"><title>2024-08-17 6.72 KM</title></rect><rect fill="#1ece3e" height="4" rx="1" ry="1" width="4" x="182.8000000000001" y="52.1"><title>2024-08-18 7.05 KM</title></rect><rect fill="#1dcd33" height="4" rx="1" ry="1" width="4" x="188.2000000000001" y="19.7"><title>2024-08-19 6.78 KM</title></rect><rect fill="#1ccb19" height="4" rx="1" ry="1" width="4" x="188.2000000000001" y="25.1"><title>2024-08-20 6.06 KM</title></rect><rect fill="#1ccd2d" height="4" rx="1" ry="1" width="4" x="188.2000000000001" y="30.5"><title>2024-08-21 6.63 KM</title></rect><rect fill="#1ece3d" height="4" rx="1" ry="1" width="4" x="188.2000000000001" y="35.9"><title>2024-08-22 7.02 KM</title></rect><rect fill="#6c71c4" height="4" rx="1" ry="1" width="4" x="188.2000000000001" y="41.300000000000004"><title>2024-08-23 10.04 KM</title></rect><rect fill="#44cd88" height="4" rx="1" ry="1" width="4" x="188.2000000000001" y="46.699999999999996"><title>2024-08-24 9.52 KM</title></rect><rect fill="#1dcd34" height="4" rx="1" ry="1" width="4" x="188.2000000000001" y="52.1"><title>2024-08-25 6.8 KM</title></rect><rect fill="#1acc20" height="4" rx="1" ry="1" width="4" x="193.6000000000001" y="19.7"><title>2024-08-26 6.31 KM</title></rect><rect fill="#1dcd36" height="4" rx="1" ry="1" width="4" x="193.6000000000001" y="25.1"><title>2024-08-27 6.84 KM</title></rect><rect fill="#1ece3e" height="4" rx="1" ry="1" width="4" x="193.6000000000001" y="30.5"><title>2024-08-28 7.04 KM</title></rect><rect fill="#1acc1c" height="4" rx="1" ry="1" width="4" x="193.6000000000001" y="35.9"><title>2024-08-29 6.2 KM</title></rect><rect fill="#3ece69" height="4" rx="1" ry="1" width="4" x="193.6000000000001" y="41.300000000000004"><title>2024-08-30 8.64 KM</title></rect><rect fill="#1bcc25" height="4" rx="1" ry="1" width="4" x="193.6000000000001" y="46.699999999999996"><title>2024-08-31 6.43 KM</title></rect><rect fill="#1bcc29" height="4" rx="1" ry="1" width="4" x="193.6000000000001" y="52.1"><title>2024-09-01 6.51 KM</title></rect><text fill="#586e75" style="font-size:2.5px; font-family:Arial" x="199.0000000000001" y="18.3">Sep</text><rect fill="#eee8d5" height="4" rx="1" ry="1" width="4" x="199.0000000000001" y="19.7"><title>2024-09-02</title></rect><rect fill="#40ce73" height="4" rx="1" ry="1" width="4" x="199.0000000000001" y="25.1"><title>2024-09-03 8.93 KM</title></rect><rect fill="#21cf51" height="4" rx="1" ry="1" width="4" x="199.0000000000001" y="30.5"><title>2024-09-04 7.51 KM</title></rect><rect fill="#1dcd38" height="4" rx="1" ry="1" width="4" x="199.0000000000001" y="35.9"><title>2024-09-05 6.9 KM</title></rect><rect fill="#1dcd35" height="4" rx="1" ry="1" width="4" x="199.0000000000001" y="41.300000000000004"><title>2024-09-06 6.82 KM</title></rect><rect fill="#3ad050" height="4" rx="1" ry="1" width="4" x="199.0000000000001" y="46.699999999999996"><title>2024-09-07 8.01 KM</title></rect><rect fill="#1ece3b" height="4" rx="1" ry="1" width="4" x="199.0000000000001" y="52.1"><title>2024-09-08 6.97 KM</title></rect><rect fill="#1dcd35" height="4" rx="1" ry="1" width="4" x="204.40000000000012" y="19.7"><title>2024-09-09 6.82 KM</title></rect><rect fill="#1ecd39" height="4" rx="1" ry="1" width="4" x="204.40000000000012" y="25.1"><title>2024-09-10 6.91 KM</title></rect><rect fill="#22cf57" height="4" rx="1" ry="1" width="4" x="204.40000000000012" y="30.5"><title>2024-09-11 7.67 KM</title></rect><rect fill="#1dcd37" height="4" rx="1" ry="1" width="4" x="204.40000000000012" y="35.9"><title>2024-09-12 6.86 KM</title></rect><rect fill="#6c71c4" height="4" rx="1" ry="1" width="4" x="204.40000000000012" y="41.300000000000004"><title>2024-09-13 10.03 KM</title></rect><rect fill="#33c916" height="4" rx="1" ry="1" width="4" x="204.40000000000012" y="46.699999999999996"><title>2024-09-14 5.34 KM</title></rect><rect fill="#6c71c4" height="4" rx="1" ry="1" width="4" x="204.40000000000012" y="52.1"><title>2024-09-15 13.45 KM</title></rect><rect fill="#eee8d5" height="4" rx="1" ry="1" width="4" x="209.80000000000013" y="19.7"><title>2024-09-16</title></rect><rect fill="#22d05b" height="4" rx="1" ry="1" width="4" x="209.80000000000013" y="25.1"><title>2024-09-17 7.77 KM</title></rect><rect fill="#39d04e" height="4" rx="1" ry="1" width="4" x="209.80000000000013" y="30.5"><title>2024-09-18 7.96 KM</title></rect><rect fill="#3dcf66" height="4" rx="1" ry="1" width="4" x="209.80000000000013" y="35.9"><title>2024-09-19 8.56 KM</title></rect><rect fill="#39d04c" height="4" rx="1" ry="1" width="4" x="209.80000000000013" y="41.300000000000004"><title>2024-09-20 7.91 KM</title></rect><rect fill="#40ce74" height="4" rx="1" ry="1" width="4" x="209.80000000000013" y="46.699999999999996"><title>2024-09-21 8.95 KM</title></rect><rect fill="#3ad050" height="4" rx="1" ry="1" width="4" x="209.80000000000013" y="52.1"><title>2024-09-22 8.01 KM</title></rect><rect fill="#1fce42" height="4" rx="1" ry="1" width="4" x="215.20000000000013" y="19.7"><title>2024-09-23 7.15 KM</title></rect><rect fill="#45cd8d" height="4" rx="1" ry="1" width="4" x="215.20000000000013" y="25.1"><title>2024-09-24 9.65 KM</title></rect><rect fill="#6c71c4" height="4" rx="1" ry="1" width="4" x="215.20000000000013" y="30.5"><title>2024-09-25 11.05 KM</title></rect><rect fill="#6c71c4" height="4" rx="1" ry="1" width="4" x="215.20000000000013" y="35.9"><title>2024-09-26 10.07 KM</title></rect><rect fill="#6c71c4" height="4" rx="1" ry="1" width="4" x="215.20000000000013" y="41.300000000000004"><title>2024-09-27 10.68 KM</title></rect><rect fill="#6c71c4" height="4" rx="1" ry="1" width="4" x="215.20000000000013" y="46.699999999999996"><title>2024-09-28 10.72 KM</title></rect><rect fill="#6c71c4" height="4" rx="1" ry="1" width="4" x="215.20000000000013" y="52.1"><title>2024-09-29 10.48 KM</title></rect><rect fill="#eee8d5" height="4" rx="1" ry="1" width="4" x="220.60000000000014" y="19.7"><title>2024-09-30</title></rect><rect fill="#6c71c4" height="4" rx="1" ry="1" width="4" x="220.60000000000014" y="25.1"><title>2024-10-01 10.16 KM</title></rect><rect fill="#6c71c4" height="4" rx="1" ry="1" width="4" x="220.60000000000014" y="30.5"><title>2024-10-02 9.97 KM</title></rect><rect fill="#6c71c4" height="4" rx="1" ry="1" width="4" x="220.60000000000014" y="35.9"><title>2024-10-03 10.59 KM</title></rect><rect fill="#42cd80" height="4" rx="1" ry="1" width="4" x="220.60000000000014" y="41.300000000000004"><title>2024-10-04 9.27 KM</title></rect><rect fill="#6c71c4" height="4" rx="1" ry="1" width="4" x="220.60000000000014" y="46.699999999999996"><title>2024-10-05 10.65 KM</title></rect><rect fill="#eee8d5" height="4" rx="1" ry="1" width="4" x="220.60000000000014" y="52.1"><title>2024-10-06</title></rect><text fill="#586e75" style="font-size:2.5px; font-family:Arial" x="226.00000000000014" y="18.3">Oct</text><rect fill="#43cd81" height="4" rx="1" ry="1" width="4" x="226.00000000000014" y="19.7"><title>2024-10-07 9.3 KM</title></rect><rect fill="#6c71c4" height="4" rx="1" ry="1" width="4" x="226.00000000000014" y="25.1"><title>2024-10-08 9.89 KM</title></rect><rect fill="#45cd8c" height="4" rx="1" ry="1" width="4" x="226.00000000000014" y="30.5"><title>2024-10-09 9.62 KM</title></rect><rect fill="#6c71c4" height="4" rx="1" ry="1" width="4" x="226.00000000000014" y="35.9"><title>2024-10-10 10.78 KM</title></rect><rect fill="#1ccd2b" height="4" rx="1" ry="1" width="4" x="226.00000000000014" y="41.300000000000004"><title>2024-10-11 6.58 KM</title></rect><rect fill="#1dcd36" height="4" rx="1" ry="1" width="4" x="226.00000000000014" y="46.699999999999996"><title>2024-10-12 6.84 KM</title></rect><rect fill="#eee8d5" height="4" rx="1" ry="1" width="4" x="226.00000000000014" y="52.1"><title>2024-10-13</title></rect><rect fill="#eee8d5" height="4" rx="1" ry="1" width="4" x="231.40000000000015" y="19.7"><title>2024-10-14</title></rect><rect fill="#43cd81" height="4" rx="1" ry="1" width="4" x="231.40000000000015" y="25.1"><title>2024-10-15 9.3 KM</title></rect><rect fill="#6c71c4" height="4" rx="1" ry="1" width="4" x="231.40000000000015" y="30.5"><title>2024-10-16 10.01 KM</title></rect><rect fill="#40ce76" height="4" rx="1" ry="1" width="4" x="231.40000000000015" y="35.9"><title>2024-10-17 8.99 KM</title></rect><rect fill="#6c71c4" height="4" rx="1" ry="1" width="4" x="231.40000000000015" y="41.300000000000004"><title>2024-10-18 9.99 KM</title></rect><rect fill="#45cc8f" height="4" rx="1" ry="1" width="4" x="231.40000000000015" y="46.699999999999996"><title>2024-10-19 9.72 KM</title></rect><rect fill="#6c71c4" height="4" rx="1" ry="1" width="4" x="231.40000000000015" y="52.1"><title>2024-10-20 10.11 KM</title></rect><rect fill="#6c71c4" height="4" rx="1" ry="1" width="4" x="236.80000000000015" y="19.7"><title>2024-10-21 9.83 KM</title></rect><rect fill="#eee8d5" height="4" rx="1" ry="1" width="4" x="236.80000000000015" y="25.1"><title>2024-10-22</title></rect><rect fill="#43cd84" height="4" rx="1" ry="1" width="4" x="236.80000000000015" y="30.5"><title>2024-10-23 9.41 KM</title></rect><rect fill="#eee8d5" height="4" rx="1" ry="1" width="4" x="236.80000000000015" y="35.9"><title>2024-10-24</title></rect><rect fill="#3dcf61" height="4" rx="1" ry="1" width="4" x="236.80000000000015" y="41.300000000000004"><title>2024-10-25 8.45 KM</title></rect><rect fill="#6c71c4" height="4" rx="1" ry="1" width="4" x="236.80000000000015" y="46.699999999999996"><title>2024-10-26 10.68 KM</title></rect><rect fill="#eee8d5" height="4" rx="1" ry="1" width="4" x="236.80000000000015" y="52.1"><title>2024-10-27</title></rect><rect fill="#6c71c4" height="4" rx="1" ry="1" width="4" x="242.20000000000016" y="19.7"><title>2024-10-28 10.04 KM</title></rect><rect fill="#45cd8b" height="4" rx="1" ry="1" width="4" x="242.20000000000016" y="25.1"><title>2024-10-29 9.61 KM</title></rect><rect fill="#3fce6f" height="4" rx="1" ry="1" width="4" x="242.20000000000016" y="30.5"><title>2024-10-30 8.82 KM</title></rect><rect fill="#3ece69" height="4" rx="1" ry="1" width="4" x="242.20000000000016" y="35.9"><title>2024-10-31 8.66 KM</title></rect><rect fill="#6c71c4" height="4" rx="1" ry="1" width="4" x="242.20000000000016" y="41.300000000000004"><title>2024-11-01 10.0 KM</title></rect><rect fill="#46cc91" height="4" rx="1" ry="1" width="4" x="242.20000000000016" y="46.699999999999996"><title>2024-11-02 9.79 KM</title></rect><rect fill="#6c71c4" height="4" rx="1" ry="1" width="4" x="242.20000000000016" y="52.1"><title>2024-11-03 11.08 KM</title></rect><text fill="#586e75" style="font-size:2.5px; font-family:Arial" x="247.60000000000016" y="18.3">Nov</text><rect fill="#eee8d5" height="4" rx="1" ry="1" width="4" x="247.60000000000016" y="19.7"><title>2024-11-04</title></rect><rect fill="#43cd82" height="4" rx="1" ry="1" width="4" x="247.60000000000016" y="25.1"><title>2024-11-05 9.34 KM</title></rect><rect fill="#6c71c4" height="4" rx="1" ry="1" width="4" x="247.60000000000016" y="30.5"><title>2024-11-06 10.78 KM</title></rect><rect fill="#6c71c4" height="4" rx="1" ry="1" width="4" x="247.60000000000016" y="35.9"><title>2024-11-07 11.29 KM</title></rect><rect fill="#3dcf66" height="4" rx="1" ry="1" width="4" x="247.60000000000016" y="41.300000000000004"><title>2024-11-08 8.56 KM</title></rect><rect fill="#6c71c4" height="4" rx="1" ry="1" width="4" x="247.60000000000016" y="46.699999999999996"><title>2024-11-09 10.87 KM</title></rect><rect fill="#39d04a" height="4" rx="1" ry="1" width="4" x="247.60000000000016" y="52.1"><title>2024-11-10 7.87 KM</title></rect><rect fill="#eee8d5" height="4" rx="1" ry="1" width="4" x="253.00000000000017" y="19.7"><title>2024-11-11</title></rect><rect fill="#6c71c4" height="4" rx="1" ry="1" width="4" x="253.00000000000017" y="25.1"><title>2024-11-12 10.22 KM</title></rect><rect fill="#21cf56" height="4" rx="1" ry="1" width="4" x="253.00000000000017" y="30.5"><title>2024-11-13 7.64 KM</title></rect><rect fill="#6c71c4" height="4" rx="1" ry="1" width="4" x="253.00000000000017" y="35.9"><title>2024-11-14 10.3 KM</title></rect><rect fill="#eee8d5" height="4" rx="1" ry="1" width="4" x="253.00000000000017" y="41.300000000000004"><title>2024-11-15</title></rect><rect fill="#1dcd33" height="4" rx="1" ry="1" width="4" x="253.00000000000017" y="46.699999999999996"><title>2024-11-16 6.77 KM</title></rect><rect fill="#eee8d5" height="4" rx="1" ry="1" width="4" x="253.00000000000017" y="52.1"><title>2024-11-17</title></rect><rect fill="#85c10a" height="4" rx="1" ry="1" width="4" x="258.40000000000015" y="19.7"><title>2024-11-18 2.82 KM</title></rect><rect fill="#6c71c4" height="4" rx="1" ry="1" width="4" x="258.40000000000015" y="25.1"><title>2024-11-19 10.13 KM</title></rect><rect fill="#6c71c4" height="4" rx="1" ry="1" width="4" x="258.40000000000015" y="30.5"><title>2024-11-20 10.42 KM</title></rect><rect fill="#6c71c4" height="4" rx="1" ry="1" width="4" x="258.40000000000015" y="35.9"><title>2024-11-21 10.24 KM</title></rect><rect fill="#6c71c4" height="4" rx="1" ry="1" width="4" x="258.40000000000015" y="41.300000000000004"><title>2024-11-22 10.21 KM</title></rect><rect fill="#6c71c4" height="4" rx="1" ry="1" width="4" x="258.40000000000015" y="46.699999999999996"><title>2024-11-23 10.22 KM</title></rect><rect fill="#6c71c4" height="4" rx="1" ry="1" width="4" x="258.40000000000015" y="52.1"><title>2024-11-24 12.7 KM</title></rect><rect fill="#22cf59" height="4" rx="1" ry="1" width="4" x="263.8000000000001" y="19.7"><title>2024-11-25 7.72 KM</title></rect><rect fill="#6c71c4" height="4" rx="1" ry="1" width="4" x="263.8000000000001" y="25.1"><title>2024-11-26 9.92 KM</title></rect><rect fill="#6c71c4" height="4" rx="1" ry="1" width="4" x="263.8000000000001" y="30.5"><title>2024-11-27 10.13 KM</title></rect><rect fill="#6c71c4" height="4" rx="1" ry="1" width="4" x="263.8000000000001" y="35.9"><title>2024-11-28 10.96 KM</title></rect><rect fill="#eee8d5" height="4" rx="1" ry="1" width="4" x="263.8000000000001" y="41.300000000000004"><title>2024-11-29</title></rect><rect fill="#eee8d5" height="4" rx="1" ry="1" width="4" x="263.8000000000001" y="46.699999999999996"><title>2024-11-30</title></rect><rect fill="#44cd86" height="4" rx="1" ry="1" width="4" x="263.8000000000001" y="52.1"><title>2024-12-01 9.45 KM</title></rect><text fill="#586e75" style="font-size:2.5px; font-family:Arial" x="269.2000000000001" y="18.3">Dec</text><rect fill="#1bcb19" height="4" rx="1" ry="1" width="4" x="269.2000000000001" y="19.7"><title>2024-12-02 6.11 KM</title></rect><rect fill="#3fce6e" height="4" rx="1" ry="1" width="4" x="269.2000000000001" y="25.1"><title>2024-12-03 8.79 KM</title></rect><rect fill="#6c71c4" height="4" rx="1" ry="1" width="4" x="269.2000000000001" y="30.5"><title>2024-12-04 10.57 KM</title></rect><rect fill="#1acc20" height="4" rx="1" ry="1" width="4" x="269.2000000000001" y="35.9"><title>2024-12-05 6.3 KM</title></rect><rect fill="#6c71c4" height="4" rx="1" ry="1" width="4" x="269.2000000000001" y="41.300000000000004"><title>2024-12-06 10.97 KM</title></rect><rect fill="#45cd8d" height="4" rx="1" ry="1" width="4" x="269.2000000000001" y="46.699999999999996"><title>2024-12-07 9.66 KM</title></rect><rect fill="#eee8d5" height="4" rx="1" ry="1" width="4" x="269.2000000000001" y="52.1"><title>2024-12-08</title></rect><rect fill="#3fce6d" height="4" rx="1" ry="1" width="4" x="274.6000000000001" y="19.7"><title>2024-12-09 8.76 KM</title></rect><rect fill="#22d05b" height="4" rx="1" ry="1" width="4" x="274.6000000000001" y="25.1"><title>2024-12-10 7.77 KM</title></rect><rect fill="#6c71c4" height="4" rx="1" ry="1" width="4" x="274.6000000000001" y="30.5"><title>2024-12-11 10.71 KM</title></rect><rect fill="#1ccd2d" height="4" rx="1" ry="1" width="4" x="274.6000000000001" y="35.9"><title>2024-12-12 6.63 KM</title></rect><rect fill="#6c71c4" height="4" rx="1" ry="1" width="4" x="274.6000000000001" y="41.300000000000004"><title>2024-12-13 9.82 KM</title></rect><rect fill="#1bcb19" height="4" rx="1" ry="1" width="4" x="274.6000000000001" y="46.699999999999996"><title>2024-12-14 6.1 KM</title></rect><rect fill="#44cd89" height="4" rx="1" ry="1" width="4" x="274.6000000000001" y="52.1"><title>2024-12-15 9.55 KM</title></rect><rect fill="#6c71c4" height="4" rx="1" ry="1" width="4" x="280.00000000000006" y="19.7"><title>2024-12-16 10.53 KM</title></rect><rect fill="#39d04c" height="4" rx="1" ry="1" width="4" x="280.00000000000006" y="25.1"><title>2024-12-17 7.92 KM</title></rect><rect fill="#46c713" height="4" rx="1" ry="1" width="4" x="280.00000000000006" y="30.5"><title>2024-12-18 4.73 KM</title></rect><rect fill="#1fce44" height="4" rx="1" ry="1" width="4" x="280.00000000000006" y="35.9"><title>2024-12-19 7.18 KM</title></rect><rect fill="#3fce6f" height="4" rx="1" ry="1" width="4" x="280.00000000000006" y="41.300000000000004"><title>2024-12-20 8.82 KM</title></rect><rect fill="#3dcf64" height="4" rx="1" ry="1" width="4" x="280.00000000000006" y="46.699999999999996"><title>2024-12-21 8.51 KM</title></rect><rect fill="#3bcf59" height="4" rx="1" ry="1" width="4" x="280.00000000000006" y="52.1"><title>2024-12-22 8.23 KM</title></rect><rect fill="#1dcd33" height="4" rx="1" ry="1" width="4" x="285.40000000000003" y="19.7"><title>2024-12-23 6.77 KM</title></rect><rect fill="#1bcc23" height="4" rx="1" ry="1" width="4" x="285.40000000000003" y="25.1"><title>2024-12-24 6.37 KM</title></rect><rect fill="#eee8d5" height="4" rx="1" ry="1" width="4" x="285.40000000000003" y="30.5"><title>2024-12-25</title></rect><rect fill="#58c510" height="4" rx="1" ry="1" width="4" x="285.40000000000003" y="35.9"><title>2024-12-26 4.2 KM</title></rect><rect fill="#1fce44" height="4" rx="1" ry="1" width="4" x="285.40000000000003" y="41.300000000000004"><title>2024-12-27 7.19 KM</title></rect><rect fill="#3ece6a" height="4" rx="1" ry="1" width="4" x="285.40000000000003" y="46.699999999999996"><title>2024-12-28 8.67 KM</title></rect><rect fill="#43cd83" height="4" rx="1" ry="1" width="4" x="285.40000000000003" y="52.1"><title>2024-12-29 9.36 KM</title></rect><rect fill="#eee8d5" height="4" rx="1" ry="1" width="4" x="290.8" y="19.7"><title>2024-12-30</title></rect><rect fill="#3ece67" height="4" rx="1" ry="1" width="4" x="290.8" y="25.1"><title>2024-12-31 8.6 KM</title></rect></svg>